<?xml version="1.0" encoding="utf-8"?>
<!-- Generator: Adobe Illustrator 16.0.0, SVG Export Plug-In . SVG Version: 6.00 Build 0)  -->
<!DOCTYPE svg PUBLIC "-//W3C//DTD SVG 1.1//EN" "http://www.w3.org/Graphics/SVG/1.1/DTD/svg11.dtd">
<svg version="1.1" id="Layer_1" xmlns="http://www.w3.org/2000/svg" xmlns:xlink="http://www.w3.org/1999/xlink" x="0px" y="0px"
	 width="1161.492px" height="182px" viewBox="0 0 1161.492 182" enable-background="new 0 0 1161.492 182" xml:space="preserve">
<g>
	<path fill="#FFFFFF" d="M94,182c-13.5,0-26-2.375-37.5-7.125S35.082,163.668,26.75,155.5c-8.336-8.164-14.875-17.75-19.625-28.75
		S0,104,0,91.5V91c0-12.5,2.375-24.289,7.125-35.375c4.75-11.082,11.375-20.75,19.875-29s18.5-14.75,30-19.5S81,0,94.5,0
		s26,2.375,37.5,7.125s21.414,11.211,29.75,19.375c8.332,8.168,14.875,17.75,19.625,28.75S188.5,78,188.5,90.5V91
		c0,12.5-2.375,24.293-7.125,35.375c-4.75,11.086-11.375,20.75-19.875,29s-18.5,14.75-30,19.5S107.5,182,94,182z M94.375,138.25
		c6.684,0,12.785-1.25,18.301-3.75s10.195-5.875,14.039-10.125s6.852-9.207,9.023-14.875c2.172-5.664,3.262-11.664,3.262-18V91
		c0-6.332-1.09-12.332-3.262-18c-2.172-5.664-5.266-10.664-9.273-15c-4.012-4.332-8.773-7.789-14.289-10.375
		c-5.516-2.582-11.617-3.875-18.301-3.875c-6.688,0-12.746,1.25-18.176,3.75c-5.434,2.5-10.113,5.875-14.043,10.125
		s-6.938,9.211-9.023,14.875c-2.09,5.668-3.133,11.668-3.133,18V91c0,6.336,1.086,12.336,3.258,18
		c2.172,5.668,5.223,10.668,9.152,15c3.926,4.336,8.648,7.793,14.164,10.375C81.59,136.961,87.688,138.25,94.375,138.25z"/>
	<path fill="#FFFFFF" d="M213.749,3.5h75c11,0,21,1.375,30,4.125s16.664,6.75,23,12c6.332,5.25,11.207,11.711,14.625,19.375
		c3.414,7.668,5.125,16.336,5.125,26v0.5c0,10.336-1.875,19.418-5.625,27.25c-3.75,7.836-8.961,14.418-15.625,19.75
		c-6.668,5.336-14.625,9.336-23.875,12c-9.25,2.668-19.293,4-30.125,4h-24v50h-48.5V3.5z M285.249,90.5
		c8.664,0,15.457-2.051,20.375-6.156c4.914-4.105,7.375-9.676,7.375-16.715v-0.504c0-7.539-2.461-13.281-7.375-17.219
		C300.706,45.969,293.831,44,284.999,44h-22.75v46.5H285.249z"/>
	<path fill="#FFFFFF" d="M469.996,182c-13.5,0-26-2.375-37.5-7.125s-21.418-11.207-29.75-19.375
		c-8.336-8.164-14.875-17.75-19.625-28.75s-7.125-22.75-7.125-35.25V91c0-12.5,2.375-24.289,7.125-35.375
		c4.75-11.082,11.375-20.75,19.875-29s18.5-14.75,30-19.5s24-7.125,37.5-7.125s26,2.375,37.5,7.125s21.414,11.211,29.75,19.375
		c8.332,8.168,14.875,17.75,19.625,28.75s7.125,22.75,7.125,35.25V91c0,12.5-2.375,24.293-7.125,35.375
		c-4.75,11.086-11.375,20.75-19.875,29s-18.5,14.75-30,19.5S483.496,182,469.996,182z M470.371,138.25
		c6.684,0,12.785-1.25,18.301-3.75s10.195-5.875,14.039-10.125s6.852-9.207,9.023-14.875c2.172-5.664,3.262-11.664,3.262-18V91
		c0-6.332-1.09-12.332-3.262-18c-2.172-5.664-5.266-10.664-9.273-15c-4.012-4.332-8.773-7.789-14.289-10.375
		c-5.516-2.582-11.617-3.875-18.301-3.875c-6.688,0-12.746,1.25-18.176,3.75c-5.434,2.5-10.113,5.875-14.043,10.125
		s-6.938,9.211-9.023,14.875c-2.09,5.668-3.133,11.668-3.133,18V91c0,6.336,1.086,12.336,3.258,18
		c2.172,5.668,5.223,10.668,9.152,15c3.926,4.336,8.648,7.793,14.164,10.375C457.585,136.961,463.683,138.25,470.371,138.25z"/>
	<path fill="#FFFFFF" d="M589.744,3.5h51.25l41.75,67.75l41.75-67.75h51.25v175h-48.25V78l-44.625,68.5h-1l-44.375-68v100h-47.75
		V3.5z"/>
	<path fill="#FFFFFF" d="M885.493,181.75c-12.5,0-23.75-1.586-33.75-4.75s-18.5-8.039-25.5-14.625c-7-6.582-12.375-14.914-16.125-25
		c-3.75-10.082-5.625-21.957-5.625-35.625V3.5h49.5v97.25c0,12.668,2.891,22.043,8.68,28.125c5.789,6.086,13.563,9.125,23.32,9.125
		s17.527-2.914,23.316-8.75c5.789-5.832,8.684-14.914,8.684-27.25V3.5h49.5v97c0,14.168-1.961,26.375-5.875,36.625
		c-3.918,10.25-9.418,18.668-16.5,25.25c-7.086,6.586-15.668,11.461-25.75,14.625C909.282,180.164,897.993,181.75,885.493,181.75z"
		/>
	<path fill="#FFFFFF" d="M996.242,3.5h45.348l72.152,92.5V3.5h47.75v175h-42.59l-74.91-96v96h-47.75V3.5z"/>
</g>
</svg>
