<?xml version="1.0" encoding="utf-8"?>
<!-- Generator: Adobe Illustrator 16.0.0, SVG Export Plug-In . SVG Version: 6.00 Build 0)  -->
<!DOCTYPE svg PUBLIC "-//W3C//DTD SVG 1.1//EN" "http://www.w3.org/Graphics/SVG/1.1/DTD/svg11.dtd">
<svg version="1.1" id="Layer_1" xmlns="http://www.w3.org/2000/svg" xmlns:xlink="http://www.w3.org/1999/xlink" x="0px" y="0px"
	 width="506.007px" height="506.006px" viewBox="0 0 506.007 506.006" enable-background="new 0 0 506.007 506.006"
	 xml:space="preserve">
<g>
	<path fill="#3FA9F5" d="M506.007,253.003c0,139.73-113.273,253.002-253.004,253.002C113.273,506.006,0,392.733,0,253.003
		S113.273,0,253.003,0C392.733,0,506.007,113.273,506.007,253.003 M100.384,94.216c0,0,4.626,11.173,13.245,22.23
		c8.588,11.064,21.733,12.344,21.733,12.344s-0.054,6.387,1.752,15.264c1.771,8.853,18.933,13.655,18.933,13.655
		s-1.695,8.896,3.876,16.293c5.57,7.397,18.755,5.47,18.755,5.47s-1.189,8.851-0.65,16.024c0.57,7.197,14.954,10.188,14.954,10.188
		s0.467,9.949,3.67,18.155c3.174,8.214,21.471,10.548,21.471,10.548s-0.076,2.748-0.433,10.547
		c-0.355,7.824,16.803,12.598,16.803,12.598s-2.814,8.183-1.639,16.222c1.174,8.042,15.748,8.647,15.748,8.647
		s-1.55,6.605-1.041,13.372c0.48,6.772,12.791,9.079,12.791,9.079s-0.881,4.234,1.135,11.248c2.007,6.987,9.36,7.745,9.36,7.745
		s-12.645,21.005-55.128,37.475c-42.485,16.472-73.015-3.019-64.806,1.943c8.206,4.96,22.419,15.198,29.897,30.526
		c7.476,15.329-8.969,61.521,0.305,43.062c9.274-18.46,12.049-45.55,73.094-57.889c61.043-12.339,105.927-17.526,130.728-42.362
		c24.803-24.834,40.272-67.462,40.272-67.462l6.982-8.547c0,0-3.076,4.555-14.946,0.131c-11.868-4.424-25.155-13.43-41.219-5.61
		c-16.067,7.821-40.039,33.218-40.039,33.218l-3.817-26.127c-3.817-26.127-8.906-60.965-37.776-89.589
		C265.521,143.989,100.384,94.216,100.384,94.216"/>
</g>
</svg>
