<?xml version="1.0" encoding="utf-8"?>
<!-- Generator: Adobe Illustrator 16.0.0, SVG Export Plug-In . SVG Version: 6.00 Build 0)  -->
<!DOCTYPE svg PUBLIC "-//W3C//DTD SVG 1.1//EN" "http://www.w3.org/Graphics/SVG/1.1/DTD/svg11.dtd">
<svg version="1.1" id="Layer_2" xmlns="http://www.w3.org/2000/svg" xmlns:xlink="http://www.w3.org/1999/xlink" x="0px" y="0px"
	 width="337.064px" height="352.795px" viewBox="0 0 337.064 352.795" enable-background="new 0 0 337.064 352.795"
	 xml:space="preserve">
<g>
	<path fill="none" stroke="#FE2B75" stroke-width="6" d="M2.772,2.873c0,0,4.626,11.173,13.245,22.23
		C24.605,36.167,37.75,37.446,37.75,37.446s-0.054,6.387,1.752,15.264c1.771,8.853,18.933,13.655,18.933,13.655
		s-1.695,8.896,3.876,16.293c5.57,7.397,18.755,5.47,18.755,5.47s-1.189,8.851-0.65,16.024c0.57,7.197,14.954,10.188,14.954,10.188
		s0.467,9.949,3.67,18.155c3.174,8.214,21.471,10.548,21.471,10.548s-0.076,2.748-0.433,10.547
		c-0.355,7.824,16.803,12.598,16.803,12.598s-2.814,8.183-1.639,16.222c1.174,8.042,15.748,8.647,15.748,8.647
		s-1.55,6.605-1.041,13.372c0.48,6.772,12.791,9.079,12.791,9.079s-0.881,4.234,1.135,11.248c2.007,6.987,9.36,7.745,9.36,7.745
		s-12.645,21.005-55.128,37.475c-42.485,16.472-73.015-3.019-64.806,1.943c8.206,4.96,22.419,15.198,29.897,30.526
		c7.476,15.329-8.969,61.521,0.305,43.062c9.274-18.46,12.049-45.55,73.094-57.889c61.043-12.339,105.927-17.526,130.728-42.362
		c24.803-24.834,40.272-67.462,40.272-67.462l6.982-8.547c0,0-3.076,4.555-14.946,0.131c-11.868-4.424-25.155-13.43-41.219-5.61
		c-16.067,7.821-40.039,33.218-40.039,33.218l-3.817-26.127c-3.817-26.127-8.906-60.965-37.776-89.589
		C167.909,52.646,2.772,2.873,2.772,2.873"/>
</g>
</svg>
