<?xml version="1.0" encoding="utf-8"?>
<!-- Generator: Adobe Illustrator 16.0.0, SVG Export Plug-In . SVG Version: 6.00 Build 0)  -->
<!DOCTYPE svg PUBLIC "-//W3C//DTD SVG 1.1//EN" "http://www.w3.org/Graphics/SVG/1.1/DTD/svg11.dtd">
<svg version="1.1" id="Layer_1" xmlns="http://www.w3.org/2000/svg" xmlns:xlink="http://www.w3.org/1999/xlink" x="0px" y="0px"
	 width="933.808px" height="703.3px" viewBox="0 0 933.808 703.3" enable-background="new 0 0 933.808 703.3" xml:space="preserve">
<g>
	<path fill="#3FA9F5" d="M719.574,279.256c0,139.73-113.273,253.002-253.004,253.002c-139.73,0-253.003-113.272-253.003-253.002
		S326.84,26.252,466.57,26.252C606.3,26.252,719.574,139.526,719.574,279.256 M313.951,120.469c0,0,4.626,11.173,13.245,22.23
		c8.588,11.064,21.733,12.344,21.733,12.344s-0.054,6.387,1.752,15.264c1.771,8.853,18.933,13.655,18.933,13.655
		s-1.695,8.896,3.876,16.293c5.57,7.397,18.755,5.47,18.755,5.47s-1.189,8.851-0.65,16.024c0.57,7.197,14.954,10.188,14.954,10.188
		s0.467,9.949,3.67,18.155c3.174,8.214,21.471,10.548,21.471,10.548s-0.076,2.748-0.433,10.547
		c-0.355,7.824,16.803,12.598,16.803,12.598s-2.814,8.183-1.639,16.222c1.174,8.042,15.748,8.647,15.748,8.647
		s-1.55,6.605-1.041,13.372c0.48,6.772,12.791,9.079,12.791,9.079s-0.881,4.234,1.135,11.248c2.007,6.987,9.36,7.745,9.36,7.745
		s-12.645,21.005-55.128,37.475c-42.485,16.472-73.015-3.019-64.806,1.943c8.206,4.96,22.419,15.198,29.897,30.526
		c7.476,15.329-8.969,61.521,0.305,43.062c9.274-18.46,12.049-45.55,73.094-57.889c61.043-12.339,105.927-17.526,130.728-42.362
		c24.803-24.834,40.272-67.462,40.272-67.462l6.982-8.547c0,0-3.076,4.555-14.946,0.131c-11.868-4.424-25.155-13.43-41.219-5.61
		c-16.067,7.821-40.039,33.218-40.039,33.218l-3.817-26.127c-3.817-26.127-8.906-60.965-37.776-89.589
		C479.088,170.242,313.951,120.469,313.951,120.469"/>
	<path fill="#3FA9F5" d="M497.534,662.3c50.262-34.611,91.991-4.22,130.205,30.147C578.408,705.849,526.167,711.928,497.534,662.3"
		/>
	<path fill="none" stroke="#3FA9F5" d="M497.534,662.3c50.262-34.611,91.991-4.22,130.205,30.147
		C578.408,705.849,526.167,711.928,497.534,662.3z"/>
	<path fill="#3FA9F5" d="M509.614,632.511c2.23-60.986,51.521-76.327,101.904-86.475
		C592.826,593.616,566.523,639.16,509.614,632.511"/>
	<path fill="none" stroke="#3FA9F5" d="M509.614,632.511c2.23-60.986,51.521-76.327,101.904-86.475
		C592.826,593.616,566.523,639.16,509.614,632.511z"/>
	<path fill="#3FA9F5" d="M587.16,634.817c47.158-38.735,91.306-11.979,132.287,19.036
		C671.425,671.376,619.884,681.848,587.16,634.817"/>
	<path fill="none" stroke="#3FA9F5" d="M587.16,634.817c47.158-38.735,91.306-11.979,132.287,19.036
		C671.425,671.376,619.884,681.848,587.16,634.817z"/>
	<path fill="#3FA9F5" d="M630.896,605.899c-29.386-53.484,5.043-91.95,43.076-126.517
		C682.35,529.809,683.151,582.397,630.896,605.899"/>
	<path fill="none" stroke="#3FA9F5" d="M630.896,605.899c-29.386-53.484,5.043-91.95,43.076-126.517
		C682.35,529.809,683.151,582.397,630.896,605.899z"/>
	<path fill="#3FA9F5" d="M669.058,604.714c34.695-50.205,84.496-36.613,132.424-18.056
		C760.126,616.705,713.45,640.94,669.058,604.714"/>
	<path fill="none" stroke="#3FA9F5" d="M669.058,604.714c34.695-50.205,84.496-36.613,132.424-18.056
		C760.126,616.705,713.45,640.94,669.058,604.714z"/>
	<path fill="#3FA9F5" d="M718.064,559.936c-44.895-41.337-24.513-88.766,0.527-133.648
		C742.598,471.419,760.109,521.012,718.064,559.936"/>
	<path fill="none" stroke="#3FA9F5" d="M718.064,559.936c-44.895-41.337-24.513-88.766,0.527-133.648
		C742.598,471.419,760.109,521.012,718.064,559.936z"/>
	<path fill="#3FA9F5" d="M741.917,554.877c24.513-55.888,75.989-52.017,126.572-42.913
		C833.603,549.328,792.387,581.998,741.917,554.877"/>
	<path fill="none" stroke="#3FA9F5" d="M741.917,554.877c24.513-55.888,75.989-52.017,126.572-42.913
		C833.603,549.328,792.387,581.998,741.917,554.877z"/>
	<path fill="#3FA9F5" d="M782.814,500.849c-51.782-32.293-40.55-82.68-24.27-131.429
		C790.504,409.317,816.911,454.801,782.814,500.849"/>
	<path fill="none" stroke="#3FA9F5" d="M782.814,500.849c-51.782-32.293-40.55-82.68-24.27-131.429
		C790.504,409.317,816.911,454.801,782.814,500.849z"/>
	<path fill="#3FA9F5" d="M800.89,493.294c13.502-59.515,64.782-65.448,116.174-66.075
		C889.874,470.506,855.58,510.382,800.89,493.294"/>
	<path fill="none" stroke="#3FA9F5" d="M800.89,493.294c13.502-59.515,64.782-65.448,116.174-66.075
		C889.874,470.506,855.58,510.382,800.89,493.294z"/>
	<path fill="#3FA9F5" d="M816.269,405.834c-55.14-26.152-49.75-77.493-39.159-127.785
		C813.427,314.024,844.868,356.186,816.269,405.834"/>
	<path fill="none" stroke="#3FA9F5" d="M816.269,405.834c-55.14-26.152-49.75-77.493-39.159-127.785
		C813.427,314.024,844.868,356.186,816.269,405.834z"/>
	<path fill="#3FA9F5" d="M825.458,422.85c6.339-60.697,56.553-72.677,107.506-79.403
		C911.105,389.657,881.789,433.323,825.458,422.85"/>
	<path fill="none" stroke="#3FA9F5" d="M825.458,422.85c6.339-60.697,56.553-72.677,107.506-79.403
		C911.105,389.657,881.789,433.323,825.458,422.85z"/>
	<path fill="#3FA9F5" d="M839.447,306.338c-59.589-13.17-65.808-64.417-66.721-115.804
		C816.165,217.483,856.23,251.555,839.447,306.338"/>
	<path fill="none" stroke="#3FA9F5" d="M839.447,306.338c-59.589-13.17-65.808-64.417-66.721-115.804
		C816.165,217.483,856.23,251.555,839.447,306.338z"/>
	<path fill="#3FA9F5" d="M851.108,351.105c-17.245-58.54,24.627-88.734,69.184-114.35
		C917.67,287.806,907.184,339.344,851.108,351.105"/>
	<path fill="none" stroke="#3FA9F5" d="M851.108,351.105c-17.245-58.54,24.627-88.734,69.184-114.35
		C917.67,287.806,907.184,339.344,851.108,351.105z"/>
	<path fill="#3FA9F5" d="M816.006,191.354c-60.951,3.052-80.497-44.727-94.963-94.044
		C770.06,111.817,817.708,134.083,816.006,191.354z"/>
	<path fill="none" stroke="#3FA9F5" d="M816.006,191.354c-60.951,3.052-80.497-44.727-94.963-94.044
		C770.06,111.817,817.708,134.083,816.006,191.354z"/>
	<path fill="#3FA9F5" d="M855.249,257.044c-36.629-48.812-7.962-91.743,24.821-131.324
		C895.468,174.464,903.67,226.415,855.249,257.044"/>
	<path fill="none" stroke="#3FA9F5" d="M855.249,257.044c-36.629-48.812-7.962-91.743,24.821-131.324
		C895.468,174.464,903.67,226.415,855.249,257.044z"/>
	<path fill="#3FA9F5" d="M789.344,104.519c-60.925-3.515-75.224-53.118-84.307-103.704
		C752.211,20.505,797.191,47.763,789.344,104.519"/>
	<path fill="none" stroke="#3FA9F5" d="M789.344,104.519c-60.925-3.515-75.224-53.118-84.307-103.704
		C752.211,20.505,797.191,47.763,789.344,104.519z"/>
	<path fill="#3FA9F5" d="M828.233,157.185c-45.777-40.357-26.425-88.215-2.361-133.629
		C850.848,68.158,869.426,117.361,828.233,157.185"/>
	<path fill="none" stroke="#3FA9F5" d="M828.233,157.185c-45.777-40.357-26.425-88.215-2.361-133.629
		C850.848,68.158,869.426,117.361,828.233,157.185z"/>
	<path fill="#3FA9F5" d="M436.275,663.182c-50.262-34.611-91.991-4.221-130.205,30.146
		C355.401,706.731,407.642,712.81,436.275,663.182"/>
	<path fill="none" stroke="#3FA9F5" d="M436.275,663.182c-50.262-34.611-91.991-4.221-130.205,30.146
		C355.401,706.731,407.642,712.81,436.275,663.182z"/>
	<path fill="#3FA9F5" d="M424.194,633.392c-2.23-60.985-51.521-76.327-101.904-86.474
		C340.982,594.498,367.285,640.042,424.194,633.392"/>
	<path fill="none" stroke="#3FA9F5" d="M424.194,633.392c-2.23-60.985-51.521-76.327-101.904-86.474
		C340.982,594.498,367.285,640.042,424.194,633.392z"/>
	<path fill="#3FA9F5" d="M346.648,635.699c-47.158-38.735-91.305-11.979-132.287,19.036
		C262.383,672.257,313.924,682.73,346.648,635.699"/>
	<path fill="none" stroke="#3FA9F5" d="M346.648,635.699c-47.158-38.735-91.305-11.979-132.287,19.036
		C262.383,672.257,313.924,682.73,346.648,635.699z"/>
	<path fill="#3FA9F5" d="M302.912,606.781c29.386-53.485-5.043-91.95-43.076-126.518
		C251.458,530.691,250.658,583.279,302.912,606.781"/>
	<path fill="none" stroke="#3FA9F5" d="M302.912,606.781c29.386-53.485-5.043-91.95-43.076-126.518
		C251.458,530.691,250.658,583.279,302.912,606.781z"/>
	<path fill="#3FA9F5" d="M264.75,605.596c-34.695-50.205-84.496-36.613-132.424-18.057
		C173.682,617.585,220.359,641.822,264.75,605.596"/>
	<path fill="none" stroke="#3FA9F5" d="M264.75,605.596c-34.695-50.205-84.496-36.613-132.424-18.057
		C173.682,617.585,220.359,641.822,264.75,605.596z"/>
	<path fill="#3FA9F5" d="M215.745,560.818c44.894-41.337,24.512-88.766-0.528-133.648C191.21,472.301,173.7,521.894,215.745,560.818
		"/>
	<path fill="none" stroke="#3FA9F5" d="M215.745,560.818c44.894-41.337,24.512-88.766-0.528-133.648
		C191.21,472.301,173.7,521.894,215.745,560.818z"/>
	<path fill="#3FA9F5" d="M191.891,555.758c-24.513-55.887-75.99-52.016-126.573-42.913
		C100.205,550.209,141.421,582.879,191.891,555.758"/>
	<path fill="none" stroke="#3FA9F5" d="M191.891,555.758c-24.513-55.887-75.99-52.016-126.573-42.913
		C100.205,550.209,141.421,582.879,191.891,555.758z"/>
	<path fill="#3FA9F5" d="M150.994,501.73c51.782-32.293,40.55-82.679,24.27-131.428C143.304,410.199,116.898,455.683,150.994,501.73
		"/>
	<path fill="none" stroke="#3FA9F5" d="M150.994,501.73c51.782-32.293,40.55-82.679,24.27-131.428
		C143.304,410.199,116.898,455.683,150.994,501.73z"/>
	<path fill="#3FA9F5" d="M132.918,494.176c-13.502-59.516-64.782-65.448-116.174-66.075
		C43.935,471.388,78.229,511.264,132.918,494.176"/>
	<path fill="none" stroke="#3FA9F5" d="M132.918,494.176c-13.502-59.516-64.782-65.448-116.174-66.075
		C43.935,471.388,78.229,511.264,132.918,494.176z"/>
	<path fill="#3FA9F5" d="M117.54,406.715c55.139-26.151,49.751-77.493,39.159-127.785
		C120.381,314.906,88.941,357.068,117.54,406.715"/>
	<path fill="none" stroke="#3FA9F5" d="M117.54,406.715c55.139-26.151,49.751-77.493,39.159-127.785
		C120.381,314.906,88.941,357.068,117.54,406.715z"/>
	<path fill="#3FA9F5" d="M108.351,423.732c-6.339-60.697-56.553-72.677-107.506-79.403
		C22.704,390.539,52.02,434.205,108.351,423.732"/>
	<path fill="none" stroke="#3FA9F5" d="M108.351,423.732c-6.339-60.697-56.553-72.677-107.506-79.403
		C22.704,390.539,52.02,434.205,108.351,423.732z"/>
	<path fill="#3FA9F5" d="M94.361,307.22c59.589-13.17,65.808-64.417,66.721-115.804C117.644,218.365,77.578,252.437,94.361,307.22"
		/>
	<path fill="none" stroke="#3FA9F5" d="M94.361,307.22c59.589-13.17,65.808-64.417,66.721-115.804
		C117.644,218.365,77.578,252.437,94.361,307.22z"/>
	<path fill="#3FA9F5" d="M82.7,351.987c17.245-58.54-24.627-88.734-69.183-114.35C16.138,288.688,26.625,340.226,82.7,351.987"/>
	<path fill="none" stroke="#3FA9F5" d="M82.7,351.987c17.245-58.54-24.627-88.734-69.183-114.35
		C16.138,288.688,26.625,340.226,82.7,351.987z"/>
	<path fill="#3FA9F5" d="M117.802,192.236c60.951,3.052,80.497-44.727,94.963-94.044C163.749,112.699,116.1,134.965,117.802,192.236
		z"/>
	<path fill="none" stroke="#3FA9F5" d="M117.802,192.236c60.951,3.052,80.497-44.727,94.963-94.044
		C163.749,112.699,116.1,134.965,117.802,192.236z"/>
	<path fill="#3FA9F5" d="M78.56,257.926c36.629-48.812,7.962-91.743-24.821-131.324C38.34,175.346,30.138,227.296,78.56,257.926"/>
	<path fill="none" stroke="#3FA9F5" d="M78.56,257.926c36.629-48.812,7.962-91.743-24.821-131.324
		C38.34,175.346,30.138,227.296,78.56,257.926z"/>
	<path fill="#3FA9F5" d="M144.464,105.4c60.925-3.515,75.224-53.118,84.307-103.704C181.597,21.387,136.617,48.645,144.464,105.4"/>
	<path fill="none" stroke="#3FA9F5" d="M144.464,105.4c60.925-3.515,75.224-53.118,84.307-103.704
		C181.597,21.387,136.617,48.645,144.464,105.4z"/>
	<path fill="#3FA9F5" d="M105.576,158.067c45.777-40.357,26.425-88.215,2.361-133.629C82.961,69.04,64.382,118.243,105.576,158.067"
		/>
	<path fill="none" stroke="#3FA9F5" d="M105.576,158.067c45.777-40.357,26.425-88.215,2.361-133.629
		C82.961,69.04,64.382,118.243,105.576,158.067z"/>
	<path fill="#3FA9F5" d="M484.401,650.914c0,9.763-7.915,17.678-17.678,17.678c-9.763,0-17.678-7.915-17.678-17.678
		s7.915-17.678,17.678-17.678C476.486,633.236,484.401,641.151,484.401,650.914"/>
	<circle fill="none" stroke="#3FA9F5" stroke-width="0.849" stroke-linecap="round" cx="466.723" cy="650.914" r="17.678"/>
</g>
</svg>
